<svg version="1.1" viewBox="0.0 0.0 174.03412073490813 100.0" fill="none" stroke="none" stroke-linecap="square" stroke-miterlimit="10" xmlns:xlink="http://www.w3.org/1999/xlink" xmlns="http://www.w3.org/2000/svg"><clipPath id="p.0"><path d="m0 0l174.03412 0l0 100.0l-174.03412 0l0 -100.0z" clip-rule="nonzero"/></clipPath><g clip-path="url(#p.0)"><path fill="#000000" fill-opacity="0.0" d="m0 0l174.03412 0l0 100.0l-174.03412 0z" fill-rule="evenodd"/><path fill="#000000" fill-opacity="0.0" d="m5.0485563 6.1574802l163.93701 0l0 87.68504l-163.93701 0z" fill-rule="evenodd"/><path fill="#000000" d="m27.41782 79.15748l0 -47.71875l21.15625 0q6.390625 0 9.703125 1.2968769q3.328125 1.28125 5.3125 4.53125q1.9843712 3.25 1.9843712 7.203125q0 5.0625 -3.2968712 8.546875q-3.28125 3.484375 -10.15625 4.4375q2.515625 1.203125 3.8125 2.375q2.765625 2.53125 5.234375 6.343746l8.312496 12.984375l-7.953121 0l-6.3125 -9.921875q-2.765625 -4.296875 -4.5625 -6.578121q-1.78125 -2.28125 -3.203125 -3.1875q-1.40625 -0.921875 -2.875 -1.265625q-1.078125 -0.234375 -3.515625 -0.234375l-7.328125 0l0 21.187496l-6.3125 0zm6.3125 -26.656246l13.578125 0q4.328125 0 6.765625 -0.890625q2.453125 -0.90625 3.71875 -2.875q1.265625 -1.96875 1.265625 -4.265625q0 -3.390625 -2.453125 -5.5625q-2.453125 -2.1875 -7.765625 -2.1875l-15.109375 0l0 15.78125zm41.46513 26.656246l0 -47.71875l6.328125 0l0 42.09375l23.484375 0l0 5.625l-29.8125 0zm32.10228 0l18.3125 -47.71875l6.8125 0l19.53125 47.71875l-7.203125 0l-5.5625 -14.453125l-19.953125 0l-5.234375 14.453125l-6.703125 0zm13.765625 -19.593746l16.171875 0l-4.984375 -13.21875q-2.265625 -6.015625 -3.375 -9.890625q-0.921875 4.59375 -2.578125 9.109375l-5.234375 14.0z" fill-rule="nonzero"/></g></svg>